# Blender 4.2.0
# www.blender.org
mtllib WIP.mtl
o Text
v 0.709570 0.380206 0.250000
v 0.741810 0.374981 0.250000
v 0.770766 0.366563 0.250000
v 0.796481 0.355185 0.250000
v 0.819003 0.341086 0.250000
v 0.838375 0.324500 0.250000
v 0.854643 0.305664 0.250000
v 0.867852 0.284815 0.250000
v 0.878047 0.262188 0.250000
v 0.885273 0.238019 0.250000
v 0.889576 0.212544 0.250000
v 0.891000 0.186000 0.250000
v 0.889492 0.159764 0.250000
v 0.884935 0.134699 0.250000
v 0.877281 0.111016 0.250000
v 0.866481 0.088926 0.250000
v 0.852487 0.068642 0.250000
v 0.835250 0.050375 0.250000
v 0.814721 0.034337 0.250000
v 0.790852 0.020741 0.250000
v 0.763594 0.009797 0.250000
v 0.732898 0.001718 0.250000
v 0.698716 -0.003285 0.250000
v 0.661000 -0.005000 0.250000
v 0.559000 -0.005000 0.250000
v 0.559000 -0.300000 0.250000
v 0.461000 -0.300000 0.250000
v 0.461000 0.382000 0.250000
v 0.674000 0.382000 0.250000
v 0.670000 0.083000 0.250000
v 0.687696 0.083807 0.250000
v 0.704236 0.086204 0.250000
v 0.719547 0.090156 0.250000
v 0.733556 0.095630 0.250000
v 0.746189 0.102589 0.250000
v 0.757375 0.111000 0.250000
v 0.767040 0.120828 0.250000
v 0.775111 0.132037 0.250000
v 0.781516 0.144594 0.250000
v 0.786181 0.158463 0.250000
v 0.789033 0.173610 0.250000
v 0.790000 0.190000 0.250000
v 0.789417 0.202550 0.250000
v 0.787588 0.215065 0.250000
v 0.784391 0.227344 0.250000
v 0.779704 0.239185 0.250000
v 0.773406 0.250388 0.250000
v 0.765375 0.260750 0.250000
v 0.755490 0.270071 0.250000
v 0.743630 0.278148 0.250000
v 0.729672 0.284781 0.250000
v 0.713495 0.289769 0.250000
v 0.694979 0.292909 0.250000
v 0.674000 0.294000 0.250000
v 0.559000 0.294000 0.250000
v 0.559000 0.083000 0.250000
v 0.217000 -0.300000 0.250000
v 0.217000 0.382000 0.250000
v 0.315000 0.382000 0.250000
v 0.315000 -0.300000 0.250000
v -0.156000 -0.306000 0.250000
v -0.380000 0.252000 0.250000
v -0.606000 -0.306000 0.250000
v -0.625000 -0.306000 0.250000
v -0.901000 0.382000 0.250000
v -0.803000 0.382000 0.250000
v -0.615000 -0.088000 0.250000
v -0.426000 0.382000 0.250000
v -0.333000 0.382000 0.250000
v -0.143000 -0.088000 0.250000
v 0.043000 0.382000 0.250000
v 0.140000 0.382000 0.250000
v -0.137000 -0.306000 0.250000
v 0.709570 0.380206 -0.250000
v 0.741810 0.374981 -0.250000
v 0.770766 0.366563 -0.250000
v 0.796481 0.355185 -0.250000
v 0.819003 0.341086 -0.250000
v 0.838375 0.324500 -0.250000
v 0.854643 0.305664 -0.250000
v 0.867852 0.284815 -0.250000
v 0.878047 0.262188 -0.250000
v 0.885273 0.238019 -0.250000
v 0.889576 0.212544 -0.250000
v 0.891000 0.186000 -0.250000
v 0.889492 0.159765 -0.250000
v 0.884935 0.134699 -0.250000
v 0.877281 0.111016 -0.250000
v 0.866481 0.088926 -0.250000
v 0.852487 0.068642 -0.250000
v 0.835250 0.050375 -0.250000
v 0.814721 0.034337 -0.250000
v 0.790852 0.020741 -0.250000
v 0.763594 0.009797 -0.250000
v 0.732898 0.001718 -0.250000
v 0.698716 -0.003285 -0.250000
v 0.661000 -0.005000 -0.250000
v 0.559000 -0.005000 -0.250000
v 0.559000 -0.300000 -0.250000
v 0.461000 -0.300000 -0.250000
v 0.461000 0.382000 -0.250000
v 0.674000 0.382000 -0.250000
v 0.670000 0.083000 -0.250000
v 0.687696 0.083807 -0.250000
v 0.704236 0.086204 -0.250000
v 0.719547 0.090156 -0.250000
v 0.733556 0.095630 -0.250000
v 0.746189 0.102589 -0.250000
v 0.757375 0.111000 -0.250000
v 0.767040 0.120828 -0.250000
v 0.775111 0.132037 -0.250000
v 0.781516 0.144594 -0.250000
v 0.786181 0.158463 -0.250000
v 0.789033 0.173610 -0.250000
v 0.790000 0.190000 -0.250000
v 0.789417 0.202550 -0.250000
v 0.787588 0.215065 -0.250000
v 0.784391 0.227344 -0.250000
v 0.779704 0.239185 -0.250000
v 0.773406 0.250388 -0.250000
v 0.765375 0.260750 -0.250000
v 0.755490 0.270071 -0.250000
v 0.743630 0.278148 -0.250000
v 0.729672 0.284781 -0.250000
v 0.713495 0.289769 -0.250000
v 0.694979 0.292909 -0.250000
v 0.674000 0.294000 -0.250000
v 0.559000 0.294000 -0.250000
v 0.559000 0.083000 -0.250000
v 0.217000 -0.300000 -0.250000
v 0.217000 0.382000 -0.250000
v 0.315000 0.382000 -0.250000
v 0.315000 -0.300000 -0.250000
v -0.156000 -0.306000 -0.250000
v -0.380000 0.252000 -0.250000
v -0.606000 -0.306000 -0.250000
v -0.625000 -0.306000 -0.250000
v -0.901000 0.382000 -0.250000
v -0.803000 0.382000 -0.250000
v -0.615000 -0.088000 -0.250000
v -0.426000 0.382000 -0.250000
v -0.333000 0.382000 -0.250000
v -0.143000 -0.088000 -0.250000
v 0.043000 0.382000 -0.250000
v 0.140000 0.382000 -0.250000
v -0.137000 -0.306000 -0.250000
v -0.156000 -0.306000 -0.250000
v -0.156000 -0.306000 0.250000
v -0.380000 0.252000 -0.250000
v -0.380000 0.252000 0.250000
v -0.606000 -0.306000 -0.250000
v -0.606000 -0.306000 0.250000
v -0.625000 -0.306000 -0.250000
v -0.625000 -0.306000 0.250000
v -0.901000 0.382000 -0.250000
v -0.901000 0.382000 0.250000
v -0.803000 0.382000 -0.250000
v -0.803000 0.382000 0.250000
v -0.615000 -0.088000 -0.250000
v -0.615000 -0.088000 0.250000
v -0.426000 0.382000 -0.250000
v -0.426000 0.382000 0.250000
v -0.333000 0.382000 -0.250000
v -0.333000 0.382000 0.250000
v -0.143000 -0.088000 -0.250000
v -0.143000 -0.088000 0.250000
v 0.043000 0.382000 -0.250000
v 0.043000 0.382000 0.250000
v 0.140000 0.382000 -0.250000
v 0.140000 0.382000 0.250000
v -0.137000 -0.306000 -0.250000
v -0.137000 -0.306000 0.250000
v 0.217000 -0.300000 -0.250000
v 0.217000 -0.300000 0.250000
v 0.217000 0.382000 -0.250000
v 0.217000 0.382000 0.250000
v 0.315000 0.382000 -0.250000
v 0.315000 0.382000 0.250000
v 0.315000 -0.300000 -0.250000
v 0.315000 -0.300000 0.250000
v 0.709570 0.380206 -0.250000
v 0.709570 0.380206 0.250000
v 0.741810 0.374981 -0.250000
v 0.741810 0.374981 0.250000
v 0.770766 0.366563 -0.250000
v 0.770766 0.366563 0.250000
v 0.796481 0.355185 -0.250000
v 0.796481 0.355185 0.250000
v 0.819003 0.341086 -0.250000
v 0.819003 0.341086 0.250000
v 0.838375 0.324500 -0.250000
v 0.838375 0.324500 0.250000
v 0.854643 0.305664 -0.250000
v 0.854643 0.305664 0.250000
v 0.867852 0.284815 -0.250000
v 0.867852 0.284815 0.250000
v 0.878047 0.262188 -0.250000
v 0.878047 0.262188 0.250000
v 0.885273 0.238019 -0.250000
v 0.885273 0.238019 0.250000
v 0.889576 0.212544 -0.250000
v 0.889576 0.212544 0.250000
v 0.891000 0.186000 -0.250000
v 0.891000 0.186000 0.250000
v 0.889492 0.159765 -0.250000
v 0.889492 0.159764 0.250000
v 0.884935 0.134699 -0.250000
v 0.884935 0.134699 0.250000
v 0.877281 0.111016 -0.250000
v 0.877281 0.111016 0.250000
v 0.866481 0.088926 -0.250000
v 0.866481 0.088926 0.250000
v 0.852487 0.068642 -0.250000
v 0.852487 0.068642 0.250000
v 0.835250 0.050375 -0.250000
v 0.835250 0.050375 0.250000
v 0.814721 0.034337 -0.250000
v 0.814721 0.034337 0.250000
v 0.790852 0.020741 -0.250000
v 0.790852 0.020741 0.250000
v 0.763594 0.009797 -0.250000
v 0.763594 0.009797 0.250000
v 0.732898 0.001718 -0.250000
v 0.732898 0.001718 0.250000
v 0.698716 -0.003285 -0.250000
v 0.698716 -0.003285 0.250000
v 0.661000 -0.005000 -0.250000
v 0.661000 -0.005000 0.250000
v 0.559000 -0.005000 -0.250000
v 0.559000 -0.005000 0.250000
v 0.559000 -0.300000 -0.250000
v 0.559000 -0.300000 0.250000
v 0.461000 -0.300000 -0.250000
v 0.461000 -0.300000 0.250000
v 0.461000 0.382000 -0.250000
v 0.461000 0.382000 0.250000
v 0.674000 0.382000 -0.250000
v 0.674000 0.382000 0.250000
v 0.670000 0.083000 -0.250000
v 0.670000 0.083000 0.250000
v 0.687696 0.083807 -0.250000
v 0.687696 0.083807 0.250000
v 0.704236 0.086204 -0.250000
v 0.704236 0.086204 0.250000
v 0.719547 0.090156 -0.250000
v 0.719547 0.090156 0.250000
v 0.733556 0.095630 -0.250000
v 0.733556 0.095630 0.250000
v 0.746189 0.102589 -0.250000
v 0.746189 0.102589 0.250000
v 0.757375 0.111000 -0.250000
v 0.757375 0.111000 0.250000
v 0.767040 0.120828 -0.250000
v 0.767040 0.120828 0.250000
v 0.775111 0.132037 -0.250000
v 0.775111 0.132037 0.250000
v 0.781516 0.144594 -0.250000
v 0.781516 0.144594 0.250000
v 0.786181 0.158463 -0.250000
v 0.786181 0.158463 0.250000
v 0.789033 0.173610 -0.250000
v 0.789033 0.173610 0.250000
v 0.790000 0.190000 -0.250000
v 0.790000 0.190000 0.250000
v 0.789417 0.202550 -0.250000
v 0.789417 0.202550 0.250000
v 0.787588 0.215065 -0.250000
v 0.787588 0.215065 0.250000
v 0.784391 0.227344 -0.250000
v 0.784391 0.227344 0.250000
v 0.779704 0.239185 -0.250000
v 0.779704 0.239185 0.250000
v 0.773406 0.250388 -0.250000
v 0.773406 0.250388 0.250000
v 0.765375 0.260750 -0.250000
v 0.765375 0.260750 0.250000
v 0.755490 0.270071 -0.250000
v 0.755490 0.270071 0.250000
v 0.743630 0.278148 -0.250000
v 0.743630 0.278148 0.250000
v 0.729672 0.284781 -0.250000
v 0.729672 0.284781 0.250000
v 0.713495 0.289769 -0.250000
v 0.713495 0.289769 0.250000
v 0.694979 0.292909 -0.250000
v 0.694979 0.292909 0.250000
v 0.674000 0.294000 -0.250000
v 0.674000 0.294000 0.250000
v 0.559000 0.294000 -0.250000
v 0.559000 0.294000 0.250000
v 0.559000 0.083000 -0.250000
v 0.559000 0.083000 0.250000
vn -0.0000 -0.0000 1.0000
vn -0.0000 -0.0000 -1.0000
vn -0.5601 -0.8284 -0.0000
vn -0.0015 -1.0000 -0.0000
vn 0.5588 -0.8293 -0.0000
vn -0.5602 -0.8283 -0.0000
vn -0.8283 0.5602 -0.0000
vn 0.5606 0.8281 -0.0000
vn 0.0009 1.0000 -0.0000
vn -0.5599 0.8286 -0.0000
vn 0.5591 0.8291 -0.0000
vn -0.0037 1.0000 -0.0000
vn -0.5621 0.8270 -0.0000
vn 0.8287 0.5597 -0.0000
vn 0.5597 -0.8287 -0.0000
vn -0.7071 -0.7071 -0.0000
vn -0.7071 0.7071 -0.0000
vn 0.7071 0.7071 -0.0000
vn 0.7071 -0.7071 -0.0000
vn 0.1053 0.9944 -0.0000
vn 0.2200 0.9755 -0.0000
vn 0.3427 0.9395 -0.0000
vn 0.4688 0.8833 -0.0000
vn 0.5921 0.8058 -0.0000
vn 0.7056 0.7086 -0.0000
vn 0.8030 0.5960 -0.0000
vn 0.8804 0.4742 -0.0000
vn 0.9370 0.3494 -0.0000
vn 0.9739 0.2269 -0.0000
vn 0.9939 0.1102 -0.0000
vn 1.0000 -0.0019 -0.0000
vn 0.9930 -0.1183 -0.0000
vn 0.9698 -0.2437 -0.0000
vn 0.9273 -0.3743 -0.0000
vn 0.8631 -0.5050 -0.0000
vn 0.7775 -0.6289 -0.0000
vn 0.6734 -0.7393 -0.0000
vn 0.5568 -0.8307 -0.0000
vn 0.4348 -0.9005 -0.0000
vn 0.3142 -0.9494 -0.0000
vn 0.2000 -0.9798 -0.0000
vn 0.0952 -0.9955 -0.0000
vn 0.0227 -0.9997 -0.0000
vn 0.0252 0.9997 -0.0000
vn -0.0228 0.9997 -0.0000
vn -0.0946 0.9955 -0.0000
vn -0.1970 0.9804 -0.0000
vn -0.3075 0.9516 -0.0000
vn -0.4241 0.9056 -0.0000
vn -0.5431 0.8397 -0.0000
vn -0.6588 0.7523 -0.0000
vn -0.7645 0.6446 -0.0000
vn -0.8536 0.5209 -0.0000
vn -0.9218 0.3876 -0.0000
vn -0.9676 0.2525 -0.0000
vn -0.9925 0.1222 -0.0000
vn -1.0000 0.0063 -0.0000
vn -0.9954 -0.0956 -0.0000
vn -0.9801 -0.1986 -0.0000
vn -0.9505 -0.3106 -0.0000
vn -0.9028 -0.4300 -0.0000
vn -0.8333 -0.5528 -0.0000
vn -0.7405 -0.6721 -0.0000
vn -0.6264 -0.7795 -0.0000
vn -0.4975 -0.8674 -0.0000
vn -0.3629 -0.9318 -0.0000
vn -0.2314 -0.9729 -0.0000
vn -0.1098 -0.9940 -0.0000
vn -0.0260 -0.9997 -0.0000
vt 0.472727 0.000000
vt 0.981818 0.000000
vt 0.490909 0.000000
vt 0.509091 0.000000
vt 0.000000 0.000000
vt 0.018182 0.000000
vt 0.036364 0.000000
vt 0.054545 0.000000
vt 0.072727 0.000000
vt 0.090909 0.000000
vt 0.109091 0.000000
vt 0.963636 0.000000
vt 0.127273 0.000000
vt 1.000000 0.000000
vt 0.945455 0.000000
vt 0.927273 0.000000
vt 0.909091 0.000000
vt 0.145455 0.000000
vt 0.890909 0.000000
vt 0.872727 0.000000
vt 0.854545 0.000000
vt 0.163636 0.000000
vt 0.836364 0.000000
vt 0.818182 0.000000
vt 0.800000 0.000000
vt 0.181818 0.000000
vt 0.781818 0.000000
vt 0.763636 0.000000
vt 0.200000 0.000000
vt 0.745455 0.000000
vt 0.727273 0.000000
vt 0.218182 0.000000
vt 0.709091 0.000000
vt 0.236364 0.000000
vt 0.690909 0.000000
vt 0.672727 0.000000
vt 0.254545 0.000000
vt 0.654545 0.000000
vt 0.636364 0.000000
vt 0.272727 0.000000
vt 0.618182 0.000000
vt 0.600000 0.000000
vt 0.581818 0.000000
vt 0.563636 0.000000
vt 0.290909 0.000000
vt 0.545455 0.000000
vt 0.527273 0.000000
vt 0.436364 0.000000
vt 0.309091 0.000000
vt 0.327273 0.000000
vt 0.345455 0.000000
vt 0.363636 0.000000
vt 0.381818 0.000000
vt 0.400000 0.000000
vt 0.418182 0.000000
vt 0.454545 0.000000
vt 0.666667 0.000000
vt 0.333333 0.000000
vt 0.250000 0.000000
vt 0.416667 0.000000
vt 0.500000 0.000000
vt 0.583333 0.000000
vt 0.083333 0.000000
vt 0.750000 0.000000
vt 0.916667 0.000000
vt 0.833333 0.000000
vt 0.166667 0.000000
vt 0.000000 1.000000
vt 0.076923 1.000000
vt 0.076923 0.000000
vt 0.153846 1.000000
vt 0.153846 0.000000
vt 0.230769 1.000000
vt 0.230769 0.000000
vt 0.307692 1.000000
vt 0.307692 0.000000
vt 0.384615 1.000000
vt 0.384615 0.000000
vt 0.461538 1.000000
vt 0.461538 0.000000
vt 0.538462 1.000000
vt 0.538462 0.000000
vt 0.615385 1.000000
vt 0.615385 0.000000
vt 0.692308 1.000000
vt 0.692308 0.000000
vt 0.769231 1.000000
vt 0.769231 0.000000
vt 0.846154 1.000000
vt 0.846154 0.000000
vt 0.923077 1.000000
vt 0.923077 0.000000
vt 1.000000 1.000000
vt 0.250000 1.000000
vt 0.500000 1.000000
vt 0.750000 1.000000
vt 0.034483 1.000000
vt 0.034483 0.000000
vt 0.068966 1.000000
vt 0.068966 0.000000
vt 0.103448 1.000000
vt 0.103448 0.000000
vt 0.137931 1.000000
vt 0.137931 0.000000
vt 0.172414 1.000000
vt 0.172414 0.000000
vt 0.206897 1.000000
vt 0.206897 0.000000
vt 0.241379 1.000000
vt 0.241379 0.000000
vt 0.275862 1.000000
vt 0.275862 0.000000
vt 0.310345 1.000000
vt 0.310345 0.000000
vt 0.344828 1.000000
vt 0.344828 0.000000
vt 0.379310 1.000000
vt 0.379310 0.000000
vt 0.413793 1.000000
vt 0.413793 0.000000
vt 0.448276 1.000000
vt 0.448276 0.000000
vt 0.482759 1.000000
vt 0.482759 0.000000
vt 0.517241 1.000000
vt 0.517241 0.000000
vt 0.551724 1.000000
vt 0.551724 0.000000
vt 0.586207 1.000000
vt 0.586207 0.000000
vt 0.620690 1.000000
vt 0.620690 0.000000
vt 0.655172 1.000000
vt 0.655172 0.000000
vt 0.689655 1.000000
vt 0.689655 0.000000
vt 0.724138 1.000000
vt 0.724138 0.000000
vt 0.758621 1.000000
vt 0.758621 0.000000
vt 0.793103 1.000000
vt 0.793103 0.000000
vt 0.827586 1.000000
vt 0.827586 0.000000
vt 0.862069 1.000000
vt 0.862069 0.000000
vt 0.896552 1.000000
vt 0.896552 0.000000
vt 0.931035 1.000000
vt 0.931035 0.000000
vt 0.965517 1.000000
vt 0.965517 0.000000
vt 0.037037 1.000000
vt 0.037037 0.000000
vt 0.074074 1.000000
vt 0.074074 0.000000
vt 0.111111 1.000000
vt 0.111111 0.000000
vt 0.148148 1.000000
vt 0.148148 0.000000
vt 0.185185 1.000000
vt 0.185185 0.000000
vt 0.222222 1.000000
vt 0.222222 0.000000
vt 0.259259 1.000000
vt 0.259259 0.000000
vt 0.296296 1.000000
vt 0.296296 0.000000
vt 0.333333 1.000000
vt 0.370370 1.000000
vt 0.370370 0.000000
vt 0.407407 1.000000
vt 0.407407 0.000000
vt 0.444444 1.000000
vt 0.444444 0.000000
vt 0.481481 1.000000
vt 0.481481 0.000000
vt 0.518519 1.000000
vt 0.518519 0.000000
vt 0.555556 1.000000
vt 0.555556 0.000000
vt 0.592593 1.000000
vt 0.592593 0.000000
vt 0.629630 1.000000
vt 0.629630 0.000000
vt 0.666667 1.000000
vt 0.703704 1.000000
vt 0.703704 0.000000
vt 0.740741 1.000000
vt 0.740741 0.000000
vt 0.777778 1.000000
vt 0.777778 0.000000
vt 0.814815 1.000000
vt 0.814815 0.000000
vt 0.851852 1.000000
vt 0.851852 0.000000
vt 0.888889 1.000000
vt 0.888889 0.000000
vt 0.925926 1.000000
vt 0.925926 0.000000
vt 0.962963 1.000000
vt 0.962963 0.000000
s 0
usemtl Material.001
f 27/1/1 55/2/1 28/3/1
f 55/2/1 29/4/1 28/3/1
f 55/2/1 1/5/1 29/4/1
f 55/2/1 2/6/1 1/5/1
f 55/2/1 3/7/1 2/6/1
f 55/2/1 4/8/1 3/7/1
f 55/2/1 5/9/1 4/8/1
f 55/2/1 6/10/1 5/9/1
f 55/2/1 7/11/1 6/10/1
f 55/2/1 54/12/1 7/11/1
f 54/12/1 8/13/1 7/11/1
f 27/1/1 56/14/1 55/2/1
f 53/15/1 8/13/1 54/12/1
f 52/16/1 8/13/1 53/15/1
f 51/17/1 8/13/1 52/16/1
f 51/17/1 9/18/1 8/13/1
f 50/19/1 9/18/1 51/17/1
f 49/20/1 9/18/1 50/19/1
f 48/21/1 9/18/1 49/20/1
f 48/21/1 10/22/1 9/18/1
f 47/23/1 10/22/1 48/21/1
f 46/24/1 10/22/1 47/23/1
f 45/25/1 10/22/1 46/24/1
f 45/25/1 11/26/1 10/22/1
f 44/27/1 11/26/1 45/25/1
f 43/28/1 11/26/1 44/27/1
f 43/28/1 12/29/1 11/26/1
f 42/30/1 12/29/1 43/28/1
f 41/31/1 12/29/1 42/30/1
f 41/31/1 13/32/1 12/29/1
f 40/33/1 13/32/1 41/31/1
f 40/33/1 14/34/1 13/32/1
f 39/35/1 14/34/1 40/33/1
f 38/36/1 14/34/1 39/35/1
f 38/36/1 15/37/1 14/34/1
f 37/38/1 15/37/1 38/36/1
f 36/39/1 15/37/1 37/38/1
f 36/39/1 16/40/1 15/37/1
f 35/41/1 16/40/1 36/39/1
f 34/42/1 16/40/1 35/41/1
f 33/43/1 16/40/1 34/42/1
f 32/44/1 16/40/1 33/43/1
f 32/44/1 17/45/1 16/40/1
f 31/46/1 17/45/1 32/44/1
f 30/47/1 17/45/1 31/46/1
f 27/1/1 25/48/1 56/14/1
f 25/48/1 30/47/1 56/14/1
f 25/48/1 17/45/1 30/47/1
f 25/48/1 18/49/1 17/45/1
f 25/48/1 19/50/1 18/49/1
f 25/48/1 20/51/1 19/50/1
f 25/48/1 21/52/1 20/51/1
f 25/48/1 22/53/1 21/52/1
f 25/48/1 23/54/1 22/53/1
f 25/48/1 24/55/1 23/54/1
f 27/1/1 26/56/1 25/48/1
f 57/5/1 59/57/1 58/58/1
f 57/5/1 60/14/1 59/57/1
f 64/59/1 66/60/1 65/58/1
f 64/59/1 67/61/1 66/60/1
f 67/61/1 69/57/1 68/62/1
f 67/61/1 62/63/1 69/57/1
f 62/63/1 70/64/1 69/57/1
f 70/64/1 72/65/1 71/66/1
f 70/64/1 73/14/1 72/65/1
f 67/61/1 63/67/1 62/63/1
f 61/5/1 70/64/1 62/63/1
f 64/59/1 63/67/1 67/61/1
f 61/5/1 73/14/1 70/64/1
f 100/1/2 101/3/2 128/2/2
f 128/2/2 101/3/2 102/4/2
f 128/2/2 102/4/2 74/5/2
f 128/2/2 74/5/2 75/6/2
f 128/2/2 75/6/2 76/7/2
f 128/2/2 76/7/2 77/8/2
f 128/2/2 77/8/2 78/9/2
f 128/2/2 78/9/2 79/10/2
f 128/2/2 79/10/2 80/11/2
f 128/2/2 80/11/2 127/12/2
f 127/12/2 80/11/2 81/13/2
f 100/1/2 128/2/2 129/14/2
f 126/15/2 127/12/2 81/13/2
f 125/16/2 126/15/2 81/13/2
f 124/17/2 125/16/2 81/13/2
f 124/17/2 81/13/2 82/18/2
f 123/19/2 124/17/2 82/18/2
f 122/20/2 123/19/2 82/18/2
f 121/21/2 122/20/2 82/18/2
f 121/21/2 82/18/2 83/22/2
f 120/23/2 121/21/2 83/22/2
f 119/24/2 120/23/2 83/22/2
f 118/25/2 119/24/2 83/22/2
f 118/25/2 83/22/2 84/26/2
f 117/27/2 118/25/2 84/26/2
f 116/28/2 117/27/2 84/26/2
f 116/28/2 84/26/2 85/29/2
f 115/30/2 116/28/2 85/29/2
f 114/31/2 115/30/2 85/29/2
f 114/31/2 85/29/2 86/32/2
f 113/33/2 114/31/2 86/32/2
f 113/33/2 86/32/2 87/34/2
f 112/35/2 113/33/2 87/34/2
f 111/36/2 112/35/2 87/34/2
f 111/36/2 87/34/2 88/37/2
f 110/38/2 111/36/2 88/37/2
f 109/39/2 110/38/2 88/37/2
f 109/39/2 88/37/2 89/40/2
f 108/41/2 109/39/2 89/40/2
f 107/42/2 108/41/2 89/40/2
f 106/43/2 107/42/2 89/40/2
f 105/44/2 106/43/2 89/40/2
f 105/44/2 89/40/2 90/45/2
f 104/46/2 105/44/2 90/45/2
f 103/47/2 104/46/2 90/45/2
f 100/1/2 129/14/2 98/48/2
f 98/48/2 129/14/2 103/47/2
f 98/48/2 103/47/2 90/45/2
f 98/48/2 90/45/2 91/49/2
f 98/48/2 91/49/2 92/50/2
f 98/48/2 92/50/2 93/51/2
f 98/48/2 93/51/2 94/52/2
f 98/48/2 94/52/2 95/53/2
f 98/48/2 95/53/2 96/54/2
f 98/48/2 96/54/2 97/55/2
f 100/1/2 98/48/2 99/56/2
f 130/5/2 131/58/2 132/57/2
f 130/5/2 132/57/2 133/14/2
f 137/59/2 138/58/2 139/60/2
f 137/59/2 139/60/2 140/61/2
f 140/61/2 141/62/2 142/57/2
f 140/61/2 142/57/2 135/63/2
f 135/63/2 142/57/2 143/64/2
f 143/64/2 144/66/2 145/65/2
f 143/64/2 145/65/2 146/14/2
f 140/61/2 135/63/2 136/67/2
f 134/5/2 135/63/2 143/64/2
f 137/59/2 140/61/2 136/67/2
f 134/5/2 143/64/2 146/14/2
s 1
f 148/68/3 150/69/4 149/70/4 147/5/3
f 150/69/4 152/71/5 151/72/5 149/70/4
f 152/71/5 154/73/6 153/74/6 151/72/5
f 154/73/6 156/75/7 155/76/7 153/74/6
f 156/75/7 158/77/8 157/78/8 155/76/7
f 158/77/8 160/79/9 159/80/9 157/78/8
f 160/79/9 162/81/10 161/82/10 159/80/9
f 162/81/10 164/83/11 163/84/11 161/82/10
f 164/83/11 166/85/12 165/86/12 163/84/11
f 166/85/12 168/87/13 167/88/13 165/86/12
f 168/87/13 170/89/14 169/90/14 167/88/13
f 170/89/14 172/91/15 171/92/15 169/90/14
f 172/91/15 148/93/3 147/14/3 171/92/15
f 174/68/16 176/94/17 175/59/17 173/5/16
f 176/94/17 178/95/18 177/61/18 175/59/17
f 178/95/18 180/96/19 179/64/19 177/61/18
f 180/96/19 174/93/16 173/14/16 179/64/19
f 182/68/20 184/97/21 183/98/21 181/5/20
f 184/97/21 186/99/22 185/100/22 183/98/21
f 186/99/22 188/101/23 187/102/23 185/100/22
f 188/101/23 190/103/24 189/104/24 187/102/23
f 190/103/24 192/105/25 191/106/25 189/104/24
f 192/105/25 194/107/26 193/108/26 191/106/25
f 194/107/26 196/109/27 195/110/27 193/108/26
f 196/109/27 198/111/28 197/112/28 195/110/27
f 198/111/28 200/113/29 199/114/29 197/112/28
f 200/113/29 202/115/30 201/116/30 199/114/29
f 202/115/30 204/117/31 203/118/31 201/116/30
f 204/117/31 206/119/32 205/120/32 203/118/31
f 206/119/32 208/121/33 207/122/33 205/120/32
f 208/121/33 210/123/34 209/124/34 207/122/33
f 210/123/34 212/125/35 211/126/35 209/124/34
f 212/125/35 214/127/36 213/128/36 211/126/35
f 214/127/36 216/129/37 215/130/37 213/128/36
f 216/129/37 218/131/38 217/132/38 215/130/37
f 218/131/38 220/133/39 219/134/39 217/132/38
f 220/133/39 222/135/40 221/136/40 219/134/39
f 222/135/40 224/137/41 223/138/41 221/136/40
f 224/137/41 226/139/42 225/140/42 223/138/41
f 226/139/42 228/141/43 227/142/43 225/140/42
f 228/141/43 230/143/19 229/144/19 227/142/43
f 230/143/19 232/145/19 231/146/19 229/144/19
f 232/145/19 234/147/16 233/148/16 231/146/19
f 234/147/16 236/149/17 235/150/17 233/148/16
f 236/149/17 238/151/44 237/152/44 235/150/17
f 238/151/44 182/93/20 181/14/20 237/152/44
f 240/68/45 242/153/46 241/154/46 239/5/45
f 242/153/46 244/155/47 243/156/47 241/154/46
f 244/155/47 246/157/48 245/158/48 243/156/47
f 246/157/48 248/159/49 247/160/49 245/158/48
f 248/159/49 250/161/50 249/162/50 247/160/49
f 250/161/50 252/163/51 251/164/51 249/162/50
f 252/163/51 254/165/52 253/166/52 251/164/51
f 254/165/52 256/167/53 255/168/53 253/166/52
f 256/167/53 258/169/54 257/58/54 255/168/53
f 258/169/54 260/170/55 259/171/55 257/58/54
f 260/170/55 262/172/56 261/173/56 259/171/55
f 262/172/56 264/174/57 263/175/57 261/173/56
f 264/174/57 266/176/58 265/177/58 263/175/57
f 266/176/58 268/178/59 267/179/59 265/177/58
f 268/178/59 270/180/60 269/181/60 267/179/59
f 270/180/60 272/182/61 271/183/61 269/181/60
f 272/182/61 274/184/62 273/185/62 271/183/61
f 274/184/62 276/186/63 275/57/63 273/185/62
f 276/186/63 278/187/64 277/188/64 275/57/63
f 278/187/64 280/189/65 279/190/65 277/188/64
f 280/189/65 282/191/66 281/192/66 279/190/65
f 282/191/66 284/193/67 283/194/67 281/192/66
f 284/193/67 286/195/68 285/196/68 283/194/67
f 286/195/68 288/197/69 287/198/69 285/196/68
f 288/197/69 290/199/19 289/200/19 287/198/69
f 290/199/19 292/201/18 291/202/18 289/200/19
f 292/201/18 240/93/45 239/14/45 291/202/18
